<mxfile host="app.diagrams.net" modified="2021-03-19T06:25:00.938Z" agent="5.0 (Macintosh; Intel Mac OS X 11_2_0) AppleWebKit/537.36 (KHTML, like Gecko) Chrome/89.0.4389.90 Safari/537.36" etag="nZdJp9HdpRd7zgLzRG6U" version="14.4.4" type="github">
  <diagram id="PO4tRxzRbetUWtjfAsTA" name="第 1 页">
    <mxGraphModel dx="983" dy="459" grid="1" gridSize="10" guides="1" tooltips="1" connect="1" arrows="1" fold="1" page="1" pageScale="1" pageWidth="827" pageHeight="1169" math="0" shadow="0">
      <root>
        <mxCell id="0" />
        <mxCell id="1" parent="0" />
        <mxCell id="gsqIR-5o5OwrVcPaUS1Q-1" value="agent" style="shape=umlActor;verticalLabelPosition=bottom;verticalAlign=top;outlineConnect=0;" vertex="1" parent="1">
          <mxGeometry x="190" y="160" width="60" height="130" as="geometry" />
        </mxCell>
        <mxCell id="gsqIR-5o5OwrVcPaUS1Q-4" value="S(雷达知识，地形，气象条件)" style="rounded=0;" vertex="1" parent="1">
          <mxGeometry x="420" y="207.5" width="207" height="35" as="geometry" />
        </mxCell>
        <mxCell id="gsqIR-5o5OwrVcPaUS1Q-6" value="" style="endArrow=classic;entryX=0;entryY=0.5;entryDx=0;entryDy=0;" edge="1" parent="1" source="gsqIR-5o5OwrVcPaUS1Q-1" target="gsqIR-5o5OwrVcPaUS1Q-4">
          <mxGeometry width="50" height="50" relative="1" as="geometry">
            <mxPoint x="300" y="225" as="sourcePoint" />
            <mxPoint x="380" y="210" as="targetPoint" />
          </mxGeometry>
        </mxCell>
        <mxCell id="gsqIR-5o5OwrVcPaUS1Q-7" value="A(调频)" style="edgeLabel;align=center;verticalAlign=middle;resizable=0;points=[];" vertex="1" connectable="0" parent="gsqIR-5o5OwrVcPaUS1Q-6">
          <mxGeometry x="-0.0336" relative="1" as="geometry">
            <mxPoint x="-11.03" y="-17.5" as="offset" />
          </mxGeometry>
        </mxCell>
        <mxCell id="gsqIR-5o5OwrVcPaUS1Q-9" value="" style="endArrow=classic;exitX=0.5;exitY=0;exitDx=0;exitDy=0;entryX=0.5;entryY=0;entryDx=0;entryDy=0;entryPerimeter=0;" edge="1" parent="1" source="gsqIR-5o5OwrVcPaUS1Q-4" target="gsqIR-5o5OwrVcPaUS1Q-1">
          <mxGeometry width="50" height="50" relative="1" as="geometry">
            <mxPoint x="490" y="180" as="sourcePoint" />
            <mxPoint x="540" y="130" as="targetPoint" />
            <Array as="points">
              <mxPoint x="523" y="120" />
              <mxPoint x="370" y="120" />
              <mxPoint x="220" y="120" />
            </Array>
          </mxGeometry>
        </mxCell>
        <mxCell id="gsqIR-5o5OwrVcPaUS1Q-10" value="R(是否探测得到探测目标的瞬时坐标)" style="edgeLabel;align=center;verticalAlign=middle;resizable=0;points=[];" vertex="1" connectable="0" parent="gsqIR-5o5OwrVcPaUS1Q-9">
          <mxGeometry x="-0.0177" y="-2" relative="1" as="geometry">
            <mxPoint x="-19.47" y="-8" as="offset" />
          </mxGeometry>
        </mxCell>
        <mxCell id="gsqIR-5o5OwrVcPaUS1Q-11" value="" style="endArrow=classic;exitX=0.5;exitY=1;exitDx=0;exitDy=0;" edge="1" parent="1" source="gsqIR-5o5OwrVcPaUS1Q-4">
          <mxGeometry width="50" height="50" relative="1" as="geometry">
            <mxPoint x="530" y="360" as="sourcePoint" />
            <mxPoint x="220" y="320" as="targetPoint" />
            <Array as="points">
              <mxPoint x="523" y="360" />
              <mxPoint x="370" y="360" />
              <mxPoint x="220" y="360" />
            </Array>
          </mxGeometry>
        </mxCell>
        <mxCell id="gsqIR-5o5OwrVcPaUS1Q-12" value="S&#39;(新的环境信息)" style="edgeLabel;align=center;verticalAlign=middle;resizable=0;points=[];" vertex="1" connectable="0" parent="gsqIR-5o5OwrVcPaUS1Q-11">
          <mxGeometry x="0.1085" y="2" relative="1" as="geometry">
            <mxPoint x="-15.33" y="-12" as="offset" />
          </mxGeometry>
        </mxCell>
      </root>
    </mxGraphModel>
  </diagram>
</mxfile>
